<?xml version="1.0" encoding="UTF-8"?>
<svg id="Livello_2" data-name="Livello 2" xmlns="http://www.w3.org/2000/svg" viewBox="0 0 214.23 119.31">
  <defs>
    <style>
      .cls-1 {
        fill: #7f9886;
      }
    </style>
  </defs>
  <g id="Livello_1-2" data-name="Livello 1">
    <g id="SOLE">
      <path class="cls-1" d="M144.47,107.11c0,4.27-.72,8.37-2.04,12.2h-70.63c-1.32-3.83-2.04-7.93-2.04-12.2,0-20.63,16.73-37.35,37.36-37.35s37.35,16.72,37.35,37.35Z"/>
      <path class="cls-1" d="M121.87,63.46c-5.15-3.84-24.89-3.53-30.22,0-1.87-5.28,8.79-11.54,8.79-20.6s-4.95-16.21-4.4-25.82c.55-9.62,10.71-17.03,10.71-17.03,0,0-3.02,6.04-3.02,17.03s24.63,35.8,18.13,46.43Z"/>
      <path class="cls-1" d="M148.42,86.68c-.92-6.36-15.1-20.09-21.37-21.37,2.41-5.05,14.38-1.94,20.79-8.35,6.41-6.41,7.96-14.96,15.15-21.37,7.19-6.41,19.62-4.47,19.62-4.47,0,0-6.41,2.14-14.18,9.91-7.77,7.77-7.89,42.73-20.01,45.65Z"/>
      <path class="cls-1" d="M214.23,106.75s-6.04-3.02-17.03-3.02c-7,0-19.62,10.01-30.6,15.58h-14.58c2.47-7.29,1.84-22.99-1.25-27.66,5.28-1.87,11.54,8.79,20.61,8.79s16.21-4.95,25.82-4.4c9.62.55,17.03,10.71,17.03,10.71Z"/>
      <path class="cls-1" d="M62.09,119.31h-6.92c-3.5-2.53-7.51-5.52-12.31-5.52-9.07,0-16.21,4.94-25.82,4.39-9.62-.55-17.04-10.71-17.04-10.71,0,0,6.05,3.02,17.04,3.02s35.79-24.63,46.42-18.13c-3.26,4.38-3.53,19.3-1.37,26.95Z"/>
      <path class="cls-1" d="M86.68,65.82c-6.36.92-20.09,15.1-21.37,21.37-5.05-2.41-1.94-14.38-8.35-20.79-6.41-6.41-14.96-7.96-21.37-15.15-6.41-7.19-4.47-19.62-4.47-19.62,0,0,2.14,6.41,9.91,14.18s42.73,7.89,45.65,20.01Z"/>
    </g>
  </g>
</svg>