<?xml version="1.0" encoding="UTF-8"?>
<svg id="Livello_2" data-name="Livello 2" xmlns="http://www.w3.org/2000/svg" viewBox="0 0 255.54 357.55">
  <defs>
    <style>
      .cls-1 {
        fill: #7f9886;
      }
    </style>
  </defs>
  <g id="Livello_1-2" data-name="Livello 1">
    <g>
      <path class="cls-1" d="M5.07,1.42c4.01-2.56,8.63.24,12.95-.31,3.53-.32,7.74-.57,10.37,2.3,5,5.22,5.48,12.83,8.27,19.2,2.9,8.93,7.69,17.06,12.38,25.14.23-.07.68-.21.91-.28-.44-1.89-1.9-3.36-2.79-5.05-5.31-8.91-10.14-18.45-11.55-28.85-.34-3.42-.64-7.23,1.17-10.31,2.42-2.82,6.39-1.78,9.4-.67,2.75,1.33,5.16-1.63,7.95-1.44,3.77.16,7.03,3.65,6.78,7.47-.16,5.53-4.49,9.65-6,14.79-4.13,9.1-1.41,19.54,3.37,27.81-1.24-.63-2.55-1.26-3.25-2.52-6.58-9.23-9.41-20.81-8.78-32.06.32-1.58-.42-2.8-1.68-3.68-1.08,10.44.5,21.37,5.64,30.62,1.48,2.82,3.37,5.41,4.8,8.27-1.05-.64-2.07-1.34-3.09-2.01-.39.09-1.18.27-1.58.36-4.67-5.86-10.38-10.76-15.47-16.23-4.18-4.22-7.82-9.01-12.66-12.53,9.06,10.45,18.28,20.74,27.59,30.97-.01.86-.04,2.59-.06,3.45-7.91-7.07-18.06-11.33-28.52-12.78-3.46-.17-7.44-.93-10.29,1.6,13.54-.53,27.56,3.27,37.75,12.48.68.77,1.31,1.58,1.87,2.45-3.73-1.62-6.97-4.32-10.97-5.32-5.37-1.29-11.01-1.54-16.47-.63-5.62,1.17-10.06,6.08-16.04,5.73-3.2-.15-6.03-2.67-6.79-5.73-.49-2.8.95-5.36,1.49-8.02-.01-3.44-2.13-7.68,1.09-10.32,4.01-3.22,9.65-1.53,14.17-.49,10.76,3.42,20.26,9.8,29.52,16.08-6.31-5.82-13.94-10.09-21.44-14.21-7.47-4.09-17.24-5.33-22.14-13.06-2.42-3.37.51-7.29.11-10.96.13-3.74-1.34-8.48,1.99-11.26"/>
      <path class="cls-1" d="M146.27,5.54c9.2-3.22,18.87-6.23,28.74-5.4,7.7.62,15.48,5.51,17.86,13.1-5.94-3.3-12.82-1.56-18.93.18-5.28,1.82-10.23,4.82-13.78,9.19-5.13,6.51-9.11,13.82-13,21.13-4.27,7.31-10.31,14.7-19.07,16.41-7.07,1.38-13.59-4.07-15.93-10.42-.5-1.8-2.38-3.85-1.2-5.66,3.27-.63,5.22,2.74,8.1,3.65,6.33,2.8,13.93.18,18.09-5.11,7.23-8.79,12.1-19.65,21.42-26.6,4.91-4.37,11.21-6.37,17.18-8.76-6.96-2-14.29-.68-21.13,1.14-16,4.35-30.91,12.06-44.51,21.45-7.88,5.51-16.31,10.88-21.83,18.95,5.06-3.43,10.1-6.97,15.88-9.13,7.48-3.55,15.85-3.91,23.91-5.02-5.01-1.67-10.2-2.72-15.38-3.71,1.65-1.62,3.48-3.04,5.45-4.24,8.51,2.74,17.64,3.99,26.49,2.23-2.05,2.97-3.81,6.14-6.01,9.01-15.23,2.08-31.69,2.93-44.59,12.25-6.44,4.65-13.47,10.92-13.5,19.52-.56,5.05,1.62,9.83,1.56,14.85-4.13.16-7.87-2-11.98-2.02-5.7-.37-11.58,1.31-15.79,5.27-10.69,9.48-15.46,23.91-16.99,37.75-.7,7.12-1.73,14.21-2.1,21.36-2.88,2.77-5.92,5.36-9,7.91-.08-8.56.95-17.55-2.45-25.64-1.61-3.29.84-6.43,2.52-9.1,2.32,5.35,3.94,10.99,4.45,16.81,1.53-6.3,1.86-12.77,2.6-19.18,2.03-9.34,6.47-17.95,11.38-26.07-7.68,6.38-12.64,15.27-18.36,23.31-8.8,15.88-16.68,32.66-19.65,50.72-.94,6.05-1.25,12.24-.13,18.29,3.27-5.13,5.21-11.03,8.92-15.89,5.06-6.95,12.26-11.82,18.56-17.53,3.62-3.29,7.96-6.25,9.86-10.94,2.49-5.67,1.8-12.73-2.05-17.63-1.39-1.5-1.68-3.52-2.02-5.45,6.45.9,13.18,4.46,15.7,10.77,2.73,6.88.42,14.96-4.57,20.21-8.4,9.19-20.46,13.92-29.01,22.95-5.05,5.02-9.3,11.2-10.39,18.38-.85,4.51-1.65,9.55.63,13.79.81,1.74,3.19,1.06,4.66,1.69-4.5-4.6-3.99-11.29-2.75-17.08.96,1.79,1.49,4.04,3.37,5.17,1.49,1.49,4.31.87,5.09-1.07,2.56-6.82,2.14-14.27,3.9-21.26,1.88-3.77,6.05-5.6,9.04-8.39-1.41,7.9-2.31,15.88-3.14,23.86-.86,7.8-2.82,16.17-8.71,21.78-3.49,3.34-9.48,3.24-12.7-.45-3.04-3.45-5.33-7.57-7.51-11.61-4.51-8.84-3.83-19.17-2.37-28.68,5.29-26.99,16.66-53.22,34.98-73.95,9.1-10.67,22.51-19.04,37.01-17.85-1.43-11.96,4.59-23.27,12.53-31.77,7.21-7.58,15.52-14.04,24.05-20.06,11.62-6.92,23.96-12.6,36.6-17.41Z"/>
      <path class="cls-1" d="M109.97,2.36c7.19-1.28,15.51.27,20.68,5.76-4.84-.63-9.81-.52-14.21,1.83-.2-.24-.6-.73-.8-.98-.11,1.32-1.23,2.14-2.3,2.73-2.57,1.51-4.97,3.28-7.29,5.14-1.96-1.58-5.55-2.91-4.77-6.07.35-4.53,4.38-7.82,8.69-8.41Z"/>
      <path class="cls-1" d="M71.66,8.77c.51-5.37,7.04-6.93,11.44-5.62,10.77,2.85,17.34,12.89,27.35,17.2-1.75,1.07-3.49,2.15-5.23,3.21-3.87-3.13-6.48-7.61-10.84-10.15-4.13-2.47-8.26-5.89-13.36-5.69-1.6.05-3.96.86-3.67,2.87.9,3.92,4.81,6.29,8.31,7.67,3.86,1.5,8.02.95,11.93-.02,1.37,1,2.47,2.32,3.69,3.51-5.16,1.6-9.2,5.47-12.09,9.91-1.51,2.72-1.69,6.07-3.89,8.44-.7-6.34,1.98-13.3,8.17-15.87-4.46,2.29-9.08-.87-12.89-3.09-4.24-2.81-9.37-6.67-8.92-12.37Z"/>
      <path class="cls-1" d="M224.32,8.87c1.06-2.16,3.76-1.82,5.77-1.85,8.06.11,16.66,2.26,22.53,8.11,1.85,1.98,3.52,4.78,2.71,7.58-1.18,2.79-4.47,3.67-7.18,4.1-8.8.97-17.4-1.94-25.57-4.84-7.07-2.71-14.35-4.83-21.49-7.29-2.14-2.35-4.01-4.93-6.18-7.26,5.33,1.99,10.84,3.43,16.13,5.51,7.51,2.79,15.02,6.53,23.2,6.51,2.64.13,5.42-3.03,3.43-5.42-3.17-4.09-8.76-4.03-13.35-5.15Z"/>
      <path class="cls-1" d="M192.37,8c3.48,2.44,7.03,6.16,6.51,10.76-.88,5.79-6.61,8.96-11.44,11.17-11.04,4.29-23.09,4.65-34.44,7.77,2.08-3.02,3.51-6.5,5.97-9.25,6.11-2.03,12.7-2.26,18.83-4.28,1.65-.67,3.91-1.52,3.96-3.63.12-2.87-2.33-4.84-4.77-5.77,3.88-.78,7.91-1.82,11.84-.72,1.93.67,3.37,2.21,5.12,3.24.05-3.16-1.52-6.11-1.58-9.29Z"/>
      <path class="cls-1" d="M56.91,23.42c2.35-4.62,4.76-9.77,9.59-12.26,3.27,1.97,3.07,6.2,4.95,9.13,2.27,1.67,6.12,1.6,7,4.73,1.52,4.9-.45,10.38-4.1,13.83-3.39,3.3-6.64,6.84-8.55,11.24-2.43-5.05-1.05-11.31,2.97-15.11-.06-.32-.18-.98-.24-1.3-3.24,3.01-5.9,7.45-4.99,12.03.3,1.89.83,3.74,1.16,5.64-2.44-1.4-2.85-4.3-3.49-6.76-.65-3.57-1.47-7.4-.18-10.92.96-2.92,3.05-5.28,4.09-8.16-3.5,2.63-6.38,6.59-6.34,11.14-.29,4.96,1.28,9.71,2.45,14.46-2.45-.78-3.28-3.31-4.27-5.4-3.04-7.01-3.5-15.34-.05-22.29Z"/>
      <path class="cls-1" d="M62.23,52.46c3.46-.29,5.62-3.27,7.89-5.51.45,4.62.62,9.6-1.94,13.7-4.02,8.01-14.04,12.39-22.65,10.01,1.5-1.99,3.71-3.25,5.37-5.07,1.36-3.38-.86-7.59,1.46-10.73,2.33-3.08,6.59-1.77,9.87-2.4Z"/>
      <path class="cls-1" d="M14.16,59.69c10.43-7.97,27.15-6.68,35.98,3.11-5-2.28-10.19-4.81-15.86-4.31-4.22.37-8.96,1.59-11.53,5.24,3.73-1.38,7.23-3.62,11.35-3.63,5.78.03,11.87,1.48,16.29,5.41-4.18-.82-8.47-2.39-12.74-1.11-2.56.4-4.33,2.4-5.89,4.29,4.71-3.27,10.63-4.61,16.11-2.34-3.19,1.23-6.52,2.64-8.69,5.41-2.15,2.77-4,6-7.26,7.63-3.17,1.98-7.96,2.03-10.37-1.14-1.34-2.36-1.67-5.12-2.47-7.69-3.04-1.51-7.14-1.29-9.45-3.94,0-2.98,2.49-5.11,4.53-6.93Z"/>
      <path class="cls-1" d="M4.63,72.18c3.47-2.19,7.75-.02,10.16,2.75,4.37,5.28,8.25,11.55,8.13,18.65,1.08-1.68,1.93-3.84,4.07-4.39,3.78-1.14,7.76-1.45,11.69-1.46-4.5,2.28-9.45,3.79-13.59,6.74-2.93,2.53-4.17,6.3-5.73,9.71-.84-1.38-1.65-2.74-2.45-4.12,3.49-7.33.54-15.87-4.7-21.52-1.04-.83-2.78-1.87-4.02-.91-2.09.76-1.43,3.29-1.34,4.99,1.05,5.03,3.54,9.62,6.27,13.93,2.44,3.78,4.25,8.06,7.62,11.16-.41,2.6-.97,5.17-1.89,7.63-2.04-3.52-3.65-7.26-5.58-10.83-3.94-7.15-9.04-13.86-11.12-21.87-.84-3.51-.95-8.28,2.48-10.46Z"/>
      <path class="cls-1" d="M1.89,110.36c1.21-3.94,5.15-6.8,9.34-6.12,1.98,1.73,4.22,4.93,2.26,7.44-2.87,4.25-5.75,8.65-6.94,13.72-.99,3.51-.08,7.14,0,10.7-6.39-6.63-7.84-17.28-4.66-25.74Z"/>
      <path class="cls-1" d="M3.52,199.68c2.95,4.21,5.61,8.89,6.07,14.12,2.82,11.73,7.59,22.89,12.78,33.75,3.66,8.39,7.08,17.05,8.23,26.19,1,8.21-2.76,16.62-9.49,21.42,1.67,16.67,8.4,32.59,8.23,49.48-.06,4.49-.94,9.95-5.24,12.35-4.13,2.17-7.14-2.42-9.24-5.27-5.1-9.17-7.6-20.77-3.72-30.82,2.16,5.38.61,12.2,4.94,16.73,2.08.83,5.09-.19,5.7-2.5,1.64-6.3.16-12.85-1.37-19.02-6.22-25.44-10.14-51.52-10.48-77.74,1.47,3.7,2.74,7.49,4.33,11.15,3.97,9.13,1.73,20.2,7.48,28.65,4.43-6.18,2.14-14.15-.69-20.47-5.94-11.61-11.09-23.68-14.68-36.23-1.75-7.11-3.68-14.41-2.85-21.79Z"/>
      <path class="cls-1" d="M13.42,210.88c1.33.24,2.66.48,4,.72-.59,5.3-.81,10.63-1.43,15.93-1.81-4.11-3.12-8.41-4.07-12.8.5-1.28,1-2.57,1.5-3.85Z"/>
    </g>
  </g>
</svg>