<?xml version="1.0" encoding="UTF-8"?>
<svg id="Livello_2" data-name="Livello 2" xmlns="http://www.w3.org/2000/svg" viewBox="0 0 248.02 228.31">
  <defs>
    <style>
      .cls-1 {
        fill: #7f9886;
      }
    </style>
  </defs>
  <g id="Livello_1-2" data-name="Livello 1">
    <g>
      <path class="cls-1" d="M12.56,11.64c-.03-1.32.06-2.64-.1-3.96-.73-1.32-2.5-2.31-3.98-1.61-2.07.8-2.81,3.24-2.78,5.29-.01,4.84,2,9.36,3.96,13.68,3.71,8.24,8.47,15.96,12.18,24.21,1.53,3.79,2.96,7.8,2.68,11.95-.09,2.52-2.45,4.84-5.06,4.25-2.96-1.28-4.48-4.5-7.31-5.98-2.85-.05-1.8,3.53-1.33,5.24,2.71,7.89,6.76,15.25,10.88,22.48,6.45,11.44,14.29,22.2,19.07,34.51,2.15,6.12,4.08,13.07,1.58,19.38-1.8,4.71-6.62,7.4-11.38,8.26-.57-3.17-1.39-6.29-2.23-9.4,2.02-.85,3.71-2.4,4.31-4.55,1.82-5.69.06-11.69-1.86-17.11-5.78-16.39-15.13-31.16-21.84-47.15-.98,5.63.87,11.18,2.02,16.65,2.03,7.68,4.06,15.38,6.56,22.94,4.86,15.54,11.2,30.88,12.53,47.25-2.09-1.46-4.52-2.88-5.76-5.19-2.35-15.26-6.93-30.06-11.48-44.76C7.97,91.94,2.32,75.34,3.73,58.18c.19-2.96,2.12-6.39,5.45-6.35,3.27.01,4.85,3.33,6.96,5.27.97-.91,2.18-1.92,1.92-3.4-.35-6.62-4.21-12.3-7.48-17.83C6.44,29.12,2.14,22.24.41,14.41-.54,10.58.18,6.35,2.42,3.1,3.75,1.18,6.04-.26,8.42.04c4.19.48,7.47,5.02,6.5,9.13-.27,1.2-1.41,1.82-2.35,2.47Z"/>
      <path class="cls-1" d="M19.16,79.72c-2.78-4.27-2.84-9.53-3.76-14.4.88,1.2,1.9,2.38,2.06,3.91.56,3.5,1.03,7.01,1.7,10.48Z"/>
      <path class="cls-1" d="M16.38,91.53c-.22,1.17-.65,2.29-1.05,3.42-.51-2.87-1.08-5.77-.75-8.69.65,1.74,1.46,3.43,1.8,5.26Z"/>
      <path class="cls-1" d="M10.99,107.77c-1.38,5.67-3.24,11.33-3.04,17.23.17,4.2.83,8.61,3.18,12.18,2.11,3.08,6.12,4,9.64,3.5.5,2.83,1,5.65,1.53,8.48-1.92-.98-3.78-2.13-5.93-2.59,6.82,9.5,18.26,14.63,24.61,24.58,3.12,4.54,4.32,10.51,2.58,15.8-.82,2.59-3.36,4.57-6.15,4.33-3.36.02-5.89-2.42-8.64-3.98.74-1.89,1.32-3.82,1.76-5.79,1.65.13,3.65.86,4.95-.56,1.8-2.09.99-5.15.13-7.47-2.58-6.83-9.19-10.66-14.2-15.53-8.14-7.68-15.77-17.08-17.34-28.51-1.1-9.69,1.93-19.31,5.61-28.16.42,2.15,1.43,4.26,1.32,6.47Z"/>
      <path class="cls-1" d="M21.82,171.7c1.2,2.23-.02,4.75-.3,7.07-2.43-3.68-3.88-8.46-7.93-10.73-1.26-.85-1.73,1.34-1.51,2.21.99,5.91,3.09,11.73,2.74,17.8-.42,2.9-1.87,5.62-3.8,7.8-1.94,2.29-6.69,1.37-6.76-1.92.07-4.03,4.92-5.58,5.51-9.42,1.47-6.16-1.14-12.16-2.81-17.98-.79-3.04-.91-7.21,2.08-9.1,2.08-.98,4.31.56,5.56,2.15,2.75,3.82,5.33,7.8,7.22,12.11Z"/>
      <path class="cls-1" d="M24.28,193.67c-2.1,5.5-5.75,10.58-6.1,16.63-.34,2.9,1.57,5.87,4.42,6.6,3.38.81,6.85-.18,10.11-1.04,6.24-2.04,12.07-5.19,18.3-7.26,1.83.97,3.54,2.18,5.35,3.19-5.18,1.92-10.43,3.73-15.3,6.41-6.43,3.59-12.9,7.35-20.04,9.38-4.01,1.05-8.67,1.23-12.25-1.18-3.03-2.32-4.94-6.33-4.15-10.16,1.42-5.57,5.15-10.08,8.35-14.71,7.36-11.44,12.3-24.85,11.93-38.59,1.86,1.67,3.64,3.42,5.35,5.24-.05,8.82-2.37,17.49-5.99,25.48Z"/>
      <path class="cls-1" d="M162.99,216.14c6.67,2.49,13.54,5.06,20.74,5.17,1.36-.03,3.88-.16,3.56-2.06-1.53-3.28-6.33-4.25-6.88-8.15.25-3.66,4.69-4.83,7.74-4.55,15.17,2.06,28.15,10.94,42.63,15.24,3.49.86,7.68,1.95,10.88-.26,1.8-1.18,1.48-3.96-.24-5.04-1.2-1.26-2.71-.06-4.05.22.62-.87.58-2.55,1.97-2.49,4.05-1.06,8.7,2.22,8.69,6.47-.13,3.75-3.48,6.76-7.07,7.31-4.54.65-9.16-.38-13.42-1.95-8.27-3.36-15.76-8.36-24.15-11.46-4.42-1.72-9.53-3.29-14.14-1.32,1.72,3.36,5.58,5.2,6.67,8.93-.83,4.12-5.36,6.02-9.21,5.74-6.9.39-13.16-3.99-20.1-2.73-8.23,1.37-16.48-.41-24.49-2.21-14.49-3.34-28.58-8.26-43.07-11.6-11.23-2.29-22.82-4.04-34.23-1.97-1.86-1.2-3.6-2.58-5.23-4.08,11.1-2.92,22.74-2.03,33.84.39,17.97,3.99,35.27,10.48,53.23,14.52,6.79,1.41,13.66,2.74,20.63,2.55-5.5-2.66-11.23-4.86-16.69-7.64-13.13-5.87-26.12-12.56-40.34-15.42-5.07-.9-11.53-.11-14.26,4.89-2.81-.75-5.64-1.4-8.49-1.93.98-4.11,2.72-8.62,6.78-10.56,6.92-3.53,14.99-1.18,21.88,1.23,16.19,6.36,30.71,16.23,46.82,22.76Z"/>
      <path class="cls-1" d="M74.84,202c-2.46-.1-5.26.69-7.46-.79-2.51-1.65-5.49-2.71-8.53-2.51-2.03.13-3.71,2.26-2.93,4.26,1.14,3.3,4.4,5.18,7.17,6.97,5.67,2.9,12.14,5.2,16.14,10.44,1.79,2.35-.71,5.29-3.29,5.24-6.27.36-12.33-1.8-18.39-3.11-4.18-.85-8.78.55-11.55,3.85-1.17,1.63-3.28,1.59-5.09,1.69-.82-1.45-1.49-3.36-.35-4.83,2.78-3.5,7.54-4.37,11.72-4.9,5.11-.18,9.77,2.64,14.84,2.72,1.39.07,2.28-1.27,1.49-2.47-1.8-2.78-5.02-4.03-7.73-5.71-3.5-2.17-7.13-4.19-10.41-6.7-2.63-1.97-5.39-4.34-6.04-7.74-.13-3.42,2.73-6.15,5.86-6.95,4.14-1.03,8.42.23,12.27,1.72,4.8,1.81,8.65,5.31,12.28,8.81Z"/>
      <path class="cls-1" d="M181.18,218.9c-4.56.12-9.27-.85-13.19-3.24-4.82-2.37-10.34-2.97-15.06-5.63,7.53-.58,15.11,1.26,21.81,4.64,2.23,1.27,4.79,2.16,6.44,4.23Z"/>
      <path class="cls-1" d="M87.69,211.13c2.47.43,4.94.82,7.4,1.25.02,2.87.35,6.1,2.58,8.18,2.65,2.27,6.18,3.19,9.59,3.56,6.59.51,13.16-1.14,19.26-3.53,1.97.45,3.9,1.04,5.78,1.74-6.78,2.93-13.91,5.38-21.36,5.71-6.57.48-13.3-1.12-18.81-4.78-5.69-3.38-10.48-8-14.66-13.09,1.8.09,3.58.19,5.36.27,1.97,1.97,4.04,3.84,6.29,5.49-.49-1.6-.99-3.19-1.42-4.81Z"/>
      <path class="cls-1" d="M142.12,217.25c-2.22-.45-4.39-1.12-6.54-1.83,2.21-.48,4.38-1.04,6.58-1.51,2.27-.65,4.25.92,6.15,1.89-2.04.48-4.06,1.35-6.18,1.45Z"/>
    </g>
  </g>
</svg>