<?xml version="1.0" encoding="UTF-8"?>
<svg id="Livello_2" data-name="Livello 2" xmlns="http://www.w3.org/2000/svg" viewBox="0 0 389.62 69">
  <defs>
    <style>
      .cls-1 {
        fill: #7f9886;
      }
    </style>
  </defs>
  <g id="Livello_1-2" data-name="Livello 1">
    <g>
      <path class="cls-1" d="M4.3,9.97C5.04,4.47,10.55.88,15.7.13c5.42-.87,10.58,2.88,12.55,7.79,2.69,5.76.46,12.21-1.4,17.87-1.28,3.69-2.36,8.35.4,11.66,3.17,4.07,8.63,5.01,13.46,5.55,18.87.81,36.79-5.97,54.57-11.32,14.34-4.22,29.3-8.78,44.39-6.21,7.75,1.5,15.91,4.05,21.28,10.18,2.32,2.75,4.02,6.51,3.27,10.16-.87,3.53-4.51,5.18-6.15,8.23-.51,1.92.95,3.69,2.64,4.39,3.73,1.6,7.87.86,11.78.55-3.19-2.2-5.43-6.16-4.36-10.08,2.07-6.89,9.08-11,10.9-18.01.35-2.44-2.32-4.01-4.33-4.67-6.42-1.39-12.75,1.02-18.91,2.5-2.87-.95-5.54-2.43-8.38-3.46,10.63-2.56,21.3-5.78,32.34-5.65,4.47.16,9.56,1.32,12.21,5.29,2.29,3.05,1.34,7.44-1.04,10.16-3.28,4.08-7.51,7.22-11.53,10.52-2.41,1.97-4.67,4.96-3.83,8.27,1.3,3.06,5.19,3.73,8.1,2.94,2.41-.42,5.08-1.87,7.33-.17,4.26,1.98,4.68,8.93.61,11.34-2.99,1.98-6.88.92-9.34-1.4,1.96-.5,5.67-.28,5.93-3.1.55-2-1.77-3.25-3.48-3.03-8.65.82-17.53,4.54-26.12,1.37-5.13-1.49-10.76-5.86-9.41-11.86.2-3.96,6.49-4.79,5.36-9.01-2.8-7.08-10.86-9.88-17.76-11.16-16.09-2.49-31.72,3.39-46.93,7.75-15.87,5.42-32.23,10.03-49.07,10.76-6.4.25-13.52-.42-18.4-5.02-3.1-3.07-3.01-7.88-1.9-11.78,1.46-4.46,3.52-8.73,4.45-13.35-3.6,5.16-7.33,10.34-10,16.07-2.18,4.55-.96,10.32,2.9,13.59,6.71,6.05,16.42,6.14,24.93,5.8,17.85-1.27,35.05-6.54,52.17-11.42,11.25-3.08,22.15-7.3,33.36-10.53,4.61-1.34,9.33.12,13.76,1.45-17.67,6.15-34.8,13.72-52.3,20.3-18.93,7.45-38.46,14.75-59.01,15.61-8.55.06-17.97-.55-24.96-6.05C-.4,58.07-1.43,48.88,1.76,42.01c3.04-8.33,9.89-14.21,15.2-21.02,2.71-3.62,6.35-7.76,5.21-12.63-.95-3.7-6.41-4.6-8.64-1.62-1.23,2.24.96,4.52.83,6.85-3.18,2.6-10.47,1.4-10.06-3.62Z"/>
      <path class="cls-1" d="M361.21,8.2c1.81-4.6,6.39-8.49,11.55-8.09,5.58.16,11.83,3.9,12.56,9.82.62,4.69-5.56,6.01-8.89,4.41-2.18-2.17,1.4-5.34-.54-7.53-2.03-2.91-7.08-2.28-8.3,1.06-1.22,3.93,1.24,7.72,3.39,10.83,4.02,6.15,9.98,10.79,13.64,17.22,3.22,5.67,6.18,12.28,4.52,18.93-1.29,6.42-7.34,10.52-13.28,12.22-13.88,3.86-28.46,1.31-42.14-2.1-29.64-7.93-57.14-21.94-86.08-31.88,3.61-1.18,7.37-2.51,11.23-1.76,6.21,1.02,12.07,3.47,18.06,5.33,14.39,4.96,29.02,9.23,43.84,12.7,9.53,2.17,19.21,3.98,29,4.32,7.17.17,14.88-.55,20.85-4.93,4.43-3.23,6.34-9.58,3.89-14.58-2.69-5.81-6.33-11.17-10.28-16.18,1.51,6.14,5.53,11.52,5.85,17.97.18,3.23-1.32,6.44-3.9,8.38-4.37,3.33-10.1,3.99-15.43,3.97-16.15-.23-31.91-4.47-47.11-9.61-14.68-4.26-29.42-9.97-44.93-9.56-7.47.44-15.56,2.18-20.98,7.73-1.49,1.75-3.46,3.98-2.56,6.46,1.49,2.15,4.27,3.27,5.21,5.83,1.01,3.32-.04,7.31-2.89,9.41-5.62,4.19-13.1,5.36-19.88,4-3.98-.83-8-1.37-12-2-1.72-.62-3.17.58-4.61,1.27-.36,3.76,3.41,4.58,6.38,4.59-3.2,3.7-10.08,3.4-11.78-1.59-1.88-4.35,1.43-8.86,5.93-9.25,4.06,1.53,10.18,3.01,12.72-1.7.69-3.65-2.04-6.69-4.64-8.82-4.36-3.25-8.91-6.54-11.84-11.22-1.77-2.86-2.1-6.98.26-9.61,3-3.77,8.18-4.55,12.7-4.65,10.67.08,20.99,3.08,31.25,5.67-2.83,1.02-5.47,2.55-8.37,3.35-5.83-1.47-11.79-3.45-17.88-2.72-2.52.26-5.35,2.14-5.09,4.96,1.66,7.7,10.4,11.87,10.98,20,.4,2.78-1.41,5.07-2.85,7.23-.53.13-1.6.39-2.13.52,3.99.61,8.22,1.33,12.15-.03,2-.74,3.68-3.19,2.32-5.22-2.25-2.96-6.06-5.26-6.05-9.41.47-5.79,4.98-10.29,9.68-13.19,11.14-6.28,24.56-7.16,36.95-4.98,13.11,2.61,25.84,6.79,38.61,10.69,12.06,3.94,24.64,6.69,37.37,6.59,5.41-.44,11.86-1.25,15.19-6.13,2.48-4.06.65-8.89-.67-13.01-1.45-5.04-3.09-10.61-.98-15.71Z"/>
    </g>
  </g>
</svg>