<?xml version="1.0" encoding="UTF-8"?>
<svg id="Livello_2" data-name="Livello 2" xmlns="http://www.w3.org/2000/svg" viewBox="0 0 195.27 204.01">
  <defs>
    <style>
      .cls-1 {
        fill: #7f9886;
      }
    </style>
  </defs>
  <g id="Livello_1-2" data-name="Livello 1">
    <g>
      <path class="cls-1" d="M112.83.87c9.49-1.02,19.44-1.2,28.43,2.46,3.57,1.42,7.35,3.61,8.67,7.45,1.09,2.8-.37,6.01-2.88,7.49-2.5,1.49-4.7,3.43-6.14,5.99-.91-.69-2.07-1.81-1.46-3.07,1.21-2.04,3.55-3.68,3.49-6.29.27-3.51-2.77-6.22-5.73-7.47-8.78-3.58-18.52-3.15-27.76-2.16-9.84,1.04-19.23,4.33-28.69,7.02-9.9,2.8-19.88,6.06-30.29,5.84-5.2.12-10.23-1.5-14.88-3.67,2.14-1.72,5.05-3.33,7.84-2.05,5.64,2.35,11.84,1.58,17.74,1.02-1.77-1.07-3.95-.5-5.76-1.4-5.87-2.57-12.9-2.78-18.63.28-1.83,1.08-3.92,2.49-4.11,4.81-.15,2.52,1.95,4.52,4.15,5.35,6.82,2.96,14.44,1.39,21.37-.29,15.07-4.08,29.56-10.12,44.8-13.56,8.4-1.76,17.31-2.35,25.61.23,2.33.86,5.12,2.03,5.83,4.67.25,2.87-2.55,4.43-4.45,6.01-3.5,2.71-7.61,5.94-7.71,10.78.41,2.82,3.38,4.23,5.92,4.6,4.31.32,8.42-1.42,12.37-2.92,6.85-2.96,14.08-4.93,21.35-6.57,7.36-1.52,15.34-1.21,22.12,2.26,5.13,2.48,8.61,7.72,9.73,13.21,1.12,4.97-1.23,10.27-5.31,13.18-4.57,3.29-10.63,4.33-16.07,3.01,1.28-2.31,2.87-4.41,4.39-6.55,4.04.41,8.21-1.23,10.67-4.51,2.22-3.04,1.34-7.42-.86-10.23-3.34-3.81-7.98-6.55-13.06-7.14-7.23-.74-14.46,1.16-21.07,3.97-5.68,2.54-11.43,4.93-16.99,7.73-4.5,1.84-9.29,4.27-14.29,3.14-3.76-.72-7.14-3.7-7.7-7.59-.71-4.57,1.93-8.78,4.86-12.03,2.57-2.91,6.08-5.24,7.51-8.99,1.02-2.6-1.79-4.12-3.88-4.56-5.36-1.14-10.89-.17-16.17.95-15.65,3.67-29.54,12.2-44.75,17.14-8.12,2.75-16.76,4.77-25.36,3.57-3.8-.64-7.7-1.68-10.76-4.13-3.45-2.79-5.28-7.78-3.58-12.02,1.35-3.39,4.47-5.54,7.48-7.34,7.35-3.77,16.46-4.53,24.05-.97,3.13,1.58,6.41,3.12,8.86,5.7,17.29-3.08,33.61-10.33,51.12-12.36Z"/>
      <path class="cls-1" d="M171.1,3.78c4.18-1.9,8.54-3.92,13.25-3.78,3.25.14,6.86,1.14,8.81,3.96,2.12,2.89,2.4,6.7,1.89,10.15-.73,5.59-3.7,10.5-6.02,15.53-1.35-1.03-2.75-2-4.19-2.9,1.16-3.1,2.17-6.48,1.39-9.81-.93-4.04-4.84-7.04-8.93-7.25-3.69-.41-7.19,1.08-10.46,2.57-3.63,1.72-7.1,3.85-10.02,6.62-2.39,2.24-3.79,5.26-5.36,8.09-2.8.65-5.52,1.57-8.11,2.8,1.39-5.82,5.43-10.62,9.83-14.49,5.62-4.33,11.44-8.53,17.93-11.49Z"/>
      <path class="cls-1" d="M13.94,2.12c6.85-1.49,14-.06,20.29,2.82-3.12,1.3-6.36,2.32-9.17,4.24-5.38-.77-11.32-1.09-16.08,2-.74.77-2.27,1.51-1.74,2.78,1.27,2.43,4.35,1.64,6.58,1.86-3.02,3.02-8.12,3.58-11.66,1.19C-.14,15.75-.43,12.59.47,10.37,3.15,5.49,8.75,3.22,13.94,2.12Z"/>
      <path class="cls-1" d="M181.85,33.25c1.15.9,2.29,1.82,3.43,2.73-6.53,11.02-14.88,20.79-21.87,31.49-2.02,3.34-3.88,7.25-3.05,11.24.51,2.62,2.86,5.19,5.75,4.65,5.74-.56,8.38-6.48,12.89-9.24,2.29-1.42,4.98.41,5.85,2.64,1.9,4.32,2.13,9.17,2.17,13.82-.19,11.51-4.46,22.35-8.56,32.93-3.32,8.74-6.68,17.51-8.64,26.67-.9,4.35-1.11,8.87-.5,13.27.5,3.36,2.69,7.39,6.54,7.42,3.57-.62,5.87-4.02,6.82-7.29,1.68-5.19.01-10.67-2.32-15.37.31-1.79.62-3.58,1.08-5.34,2.87,5.07,5.53,10.45,6.08,16.34.54,6.69-1.11,13.73-5.35,19.03-2.58,3.1-6.69,5.42-10.81,4.42-5.24-1.44-8.53-6.42-10.02-11.36-2.26-7.65-.96-15.82,1.14-23.34,3.78-11.86,10.11-22.65,15.2-33.96,3.18-7.45,5.98-15.23,6.5-23.37,0-2.78.24-6.15-2.01-8.19-1.31-1.29-3.22-.49-4.6.18-4.11,2.26-7.22,6.04-11.62,7.82-3.88,1.66-8.9,1.39-11.99-1.7-3.03-3.01-3.64-7.79-2.32-11.73,2.07-6.76,6.52-12.49,11.13-17.73,7.3-7.92,13.86-16.57,19.09-26.01Z"/>
      <path class="cls-1" d="M144.18,37.34c2.71-1.17,5.41-2.37,8.14-3.5,2.12,4.34,5.81,7.55,9.38,10.65,2.29,2.02,5.05,3.36,7.8,4.65-1.69,1.89-3.22,3.89-4.79,5.87-5.08-2.82-10.18-5.67-14.72-9.31-2.64-2.2-4.91-4.98-5.82-8.35Z"/>
      <path class="cls-1" d="M172.18,65.88c2.92-2.37,5.42-5.76,9.35-6.45,3.46-.47,6.28,2.27,7.86,5.06,3.5,6.18,4.48,13.46,4.43,20.47-.4,13.96-4.68,27.38-8.92,40.56-3.13,11.8-8.02,24.29-4.35,36.53,1.43,2.61-1.08,4.94-2.75,6.7-2.97-7.7-3.44-16.22-1.65-24.26,2.43-14.4,8.38-27.87,11.73-42.04,1.89-9.4,2.99-19.4-.03-28.69-1.18-3.46-3.54-7.22-7.45-7.81-3.25-.55-5.5,2.92-8.69,2.54-2.07-1.03-1.16-3.53-.53-5.18.25.64.74,1.92,1,2.57Z"/>
      <path class="cls-1" d="M182.09,180.8c1.71-2.61,3.56-5.14,4.94-7.96,2.7,6.78,3.01,14.54.69,21.46-1.43,3.76-3.81,7.59-7.7,9.15-2,.81-4.6.88-6.23-.74-1.86-1.82-2.02-4.63-1.94-7.08.1-2.11.95-4.6,3.17-5.31,1.05,1.23-.67,3.24.25,4.67.41.99,1.27,2.05,2.48,1.84,1.29-.45,2.07-1.68,2.68-2.82,1.95-4.09,2.26-8.77,1.66-13.21Z"/>
    </g>
  </g>
</svg>