<?xml version="1.0" encoding="UTF-8"?>
<svg id="Livello_2" data-name="Livello 2" xmlns="http://www.w3.org/2000/svg" viewBox="0 0 79.61 87.44">
  <defs>
    <style>
      .cls-1 {
        fill: #7f9886;
      }
    </style>
  </defs>
  <g id="Livello_1-2" data-name="Livello 1">
    <g>
      <path class="cls-1" d="M42.89.02c4.65,1.03,5.93,6.27,9.38,8.94,2.72,2.27,5.88,5.07,5.71,8.96-.16,7.23-5.2,12.95-7.73,19.42-4.26,8.37-6.63,17.5-9.02,26.53.21.11.63.33.84.45,1.03-1.65,1.03-3.72,1.6-5.54,2.55-10.06,5.88-20.22,12.23-28.57,2.18-2.66,4.66-5.56,8.12-6.46,3.71-.28,5.78,3.26,7.12,6.17,1,2.88,4.8,2.5,6.64,4.6,2.55,2.78,2.39,7.55-.49,10.08-4.02,3.8-10,3.65-14.7,6.22-9.36,3.51-14.81,12.82-17.28,22.05-.43-1.32-.91-2.69-.52-4.08,1.87-11.18,8.06-21.37,16.46-28.88,1.34-.89,1.68-2.28,1.41-3.79-8.15,6.62-14.76,15.46-17.66,25.64-.95,3.04-1.44,6.21-2.45,9.24-.29-1.2-.52-2.41-.76-3.61-.34-.21-1.03-.64-1.37-.86.84-7.45.27-14.95.54-22.42.03-5.94.84-11.9-.09-17.81-.98,13.8-1.74,27.59-2.39,41.41-.62.6-1.86,1.8-2.48,2.4-.59-10.59-4.76-20.78-11.13-29.2-2.33-2.57-4.6-5.92-8.41-6.14,9.95,9.2,17.18,21.8,17.87,35.52-.06,1.03-.19,2.04-.41,3.05-1.49-3.78-1.87-7.98-4-11.52-2.88-4.71-6.7-8.87-11.2-12.09-4.8-3.15-11.41-2.81-15.39-7.29-2.16-2.37-2.38-6.15-.75-8.85,1.63-2.33,4.46-3.12,6.72-4.62,2.43-2.44,3.92-6.94,8.07-6.53,5.11.56,7.91,5.74,10.37,9.67,5.19,10.03,7.4,21.26,9.5,32.24-.35-8.58-2.72-16.99-5.11-25.21-2.39-8.17-8.42-15.96-6.42-24.89.67-4.09,5.52-4.79,7.83-7.67C36.26,4.03,38.57-.36,42.89.02"/>
      <path class="cls-1" d="M63.99,52.24c4.93-1.61,10.27-3.54,15.45-1.89.92,3.71-2.21,6.55-2.96,9.96.42,2.79,3.2,5.46,1.61,8.29-2.39,4.54-7.66,7.02-12.68,6.88-4.73-.06-9.53.14-13.99,1.9,1.85-5.29,7.25-8.74,12.78-8.58.18-.27.57-.82.75-1.09-4.42-.16-9.44,1.1-12.03,4.98-1.12,1.55-2.06,3.23-3.17,4.81-.74-2.72,1.03-5.06,2.31-7.25,2.06-2.98,4.19-6.27,7.59-7.85,2.74-1.39,5.89-1.58,8.66-2.88-4.33-.62-9.17.15-12.36,3.39-3.71,3.3-5.96,7.77-8.49,11.96-1.18-2.28.02-4.66.8-6.84,2.81-7.11,8.37-13.32,15.73-15.8Z"/>
      <path class="cls-1" d="M47.22,76.53c2.65,2.24,6.29,1.66,9.48,1.68-2.95,3.59-6.35,7.23-11.06,8.32-8.51,2.82-18.69-1.17-23.09-8.94,2.47-.35,4.92.33,7.38.21,3.35-1.43,4.76-5.98,8.62-6.55,3.83-.53,5.91,3.41,8.68,5.28Z"/>
      <path class="cls-1" d="M8.12,47.65c13.01,1.74,23.92,14.47,23.24,27.64-1.92-5.15-3.8-10.61-8.17-14.26-3.25-2.72-7.46-5.21-11.86-4.45,3.61,1.66,7.67,2.55,10.59,5.46,4.07,4.11,7.35,9.44,7.69,15.34-2.38-3.54-4.3-7.68-8.22-9.79-2.09-1.53-4.76-1.36-7.2-1.13,5.64,1.02,10.78,4.26,13.05,9.74-3.13-1.39-6.48-2.74-9.97-2.32-3.48.44-7.07,1.41-10.53.26-3.64-.84-7.06-4.19-6.53-8.14.72-2.62,2.44-4.8,3.69-7.18C2.83,55.6-.23,52.86.01,49.35c2.11-2.11,5.37-1.85,8.1-1.7Z"/>
    </g>
  </g>
</svg>